HIERARCHY
ROOT root
{
	OFFSET 0.000000 0.000000 0.000000
	CHANNELS 6 Xposition Yposition Zposition Zrotation Yrotation Xrotation
	JOINT lhip
	{
		OFFSET 0.058581 -0.082280 -0.017664
		CHANNELS 3 Zrotation Yrotation Xrotation
		JOINT lknee
		{
			OFFSET 0.043451 -0.386469 0.008037
			CHANNELS 3 Zrotation Yrotation Xrotation
			JOINT lankle
			{
				OFFSET -0.014790 -0.426874 -0.037428
				CHANNELS 3 Zrotation Yrotation Xrotation
				JOINT ltoe
				{
					OFFSET 0.041054 -0.060286 0.122042
					CHANNELS 3 Zrotation Yrotation Xrotation
					End Site
					{
						OFFSET 0.000000 0.000000 0.000000
					}
				}
			}
		}
	}
	JOINT rhip
	{
		OFFSET -0.060310 -0.090513 -0.013543
		CHANNELS 3 Zrotation Yrotation Xrotation
		JOINT rknee
		{
			OFFSET -0.043257 -0.383688 -0.004843
			CHANNELS 3 Zrotation Yrotation Xrotation
			JOINT rankle
			{
				OFFSET 0.019056 -0.420046 -0.034562
				CHANNELS 3 Zrotation Yrotation Xrotation
				JOINT rtoe
				{
					OFFSET -0.034840 -0.062106 0.130323
					CHANNELS 3 Zrotation Yrotation Xrotation
					End Site
					{
						OFFSET 0.000000 0.000000 0.000000
					}
				}
			}
		}
	}
	JOINT lowerback
	{
		OFFSET 0.004439 0.124404 -0.038385
		CHANNELS 3 Zrotation Yrotation Xrotation
		JOINT upperback
		{
			OFFSET 0.004488 0.137956 0.026820
			CHANNELS 3 Zrotation Yrotation Xrotation
			JOINT chest
			{
				OFFSET -0.002265 0.056032 0.002855
				CHANNELS 3 Zrotation Yrotation Xrotation
				JOINT lowerneck
				{
					OFFSET -0.013390 0.211636 -0.033468
					CHANNELS 3 Zrotation Yrotation Xrotation
					JOINT upperneck
					{
						OFFSET 0.010113 0.088937 0.050410
						CHANNELS 3 Zrotation Yrotation Xrotation
						End Site
						{
							OFFSET 0.000000 0.000000 0.000000
						}
					}
				}
				JOINT lclavicle
				{
					OFFSET 0.071702 0.114000 -0.018898
					CHANNELS 3 Zrotation Yrotation Xrotation
					JOINT lshoulder
					{
						OFFSET 0.122921 0.045205 -0.019046
						CHANNELS 3 Zrotation Yrotation Xrotation
						JOINT lelbow
						{
							OFFSET 0.255332 -0.015649 -0.022946
							CHANNELS 3 Zrotation Yrotation Xrotation
							JOINT lwrist
							{
								OFFSET 0.265709 0.012698 -0.007375
								CHANNELS 3 Zrotation Yrotation Xrotation
								End Site
								{
									OFFSET 0.000000 0.000000 0.000000
								}
							}
						}
					}
				}
				JOINT rclavicle
				{
					OFFSET -0.082954 0.112472 -0.023707
					CHANNELS 3 Zrotation Yrotation Xrotation
					JOINT rshoulder
					{
						OFFSET -0.113228 0.046853 -0.008472
						CHANNELS 3 Zrotation Yrotation Xrotation
						JOINT relbow
						{
							OFFSET -0.260127 -0.014369 -0.031269
							CHANNELS 3 Zrotation Yrotation Xrotation
							JOINT rwrist
							{
								OFFSET -0.269108 0.006794 -0.006027
								CHANNELS 3 Zrotation Yrotation Xrotation
								End Site
								{
									OFFSET 0.000000 0.000000 0.000000
								}
							}
						}
					}
				}
			}
		}
	}
}
MOTION
Frames: 6
Frame Time: 0.033333
-0.416147 2.893637 0.994563 5.602969 0.568436 85.919664 3.489213 5.408963 12.119164 -2.828716 -0.899064 -4.573364 3.656426 13.722006 -11.756788 0.000000 -0.000000 0.000000 -2.223689 -3.117633 -0.585995 0.855381 -4.790768 19.505151 4.487455 -7.560061 -12.685455 0.000000 -0.000000 0.000000 -0.029301 -1.688064 0.047884 0.807917 -2.816902 11.008087 -0.857472 -2.208613 -0.931805 4.754045 5.864357 2.699453 1.464471 5.500941 0.456182 -27.652891 3.659666 0.877635 -60.097830 -3.275948 9.016237 13.432090 -35.775448 2.992362 -5.306703 -7.387346 4.842417 25.356174 1.933681 3.214393 59.764884 3.515594 12.265664 -12.499207 28.571157 -2.261570 4.699208 8.843534 -0.959782 
-0.416103 2.893859 0.994621 5.553708 0.534239 85.948575 3.432147 5.397054 12.078431 -2.830205 -0.992127 -4.577554 3.790666 13.886544 -11.698113 0.000000 -0.000000 0.000000 -2.256234 -2.952737 -0.606452 0.986592 -4.536075 19.443970 4.844147 -7.972620 -12.739843 0.000000 -0.000000 0.000000 -0.073008 -1.634738 0.027804 0.811256 -2.868186 10.989015 -0.835263 -2.199039 -0.922476 4.646904 5.743372 2.705452 1.473948 5.561339 0.424717 -27.657304 3.683598 0.958616 -60.222714 -3.295516 9.225245 13.563505 -35.511033 3.022968 -5.181348 -7.289308 4.539377 25.285805 1.959120 3.203108 59.846072 3.493630 12.421252 -12.644683 28.582161 -2.331130 4.662587 8.795236 -1.146334 
-0.416080 2.893974 0.994662 5.542848 0.539455 85.946856 3.431795 5.399876 12.071864 -2.827880 -0.987630 -4.580764 3.778684 13.895283 -11.680613 0.000000 -0.000000 0.000000 -2.248846 -2.928725 -0.612150 0.986348 -4.538096 19.433973 4.857731 -7.988885 -12.729013 0.000000 -0.000000 0.000000 -0.070087 -1.645845 0.050828 0.805200 -2.872342 10.924333 -0.827729 -2.211508 -0.902379 4.622065 5.727639 2.775679 1.475832 5.555460 0.383652 -27.659596 3.684989 0.988810 -60.347261 -3.246672 9.270271 13.639393 -35.235114 3.053339 -5.158492 -7.346937 4.465610 25.271593 1.972145 3.204287 59.855494 3.487859 12.448445 -12.652732 28.579723 -2.327881 4.650755 8.825044 -1.195254 
-0.416100 2.894266 0.994657 5.556445 0.538158 85.950254 3.431208 5.407782 12.061036 -2.832449 -0.985410 -4.589676 3.775682 13.893693 -11.662865 0.000000 -0.000000 0.000000 -2.254943 -2.907928 -0.623687 0.991547 -4.548534 19.425749 4.866640 -8.005848 -12.700119 0.000000 -0.000000 0.000000 -0.081023 -1.648915 0.047430 0.797786 -2.868944 10.926622 -0.831559 -2.231899 -0.911890 4.646188 5.698036 2.869447 1.502237 5.535884 0.318843 -27.706005 3.703650 1.029943 -60.366212 -3.153758 9.284309 13.614375 -35.069430 3.062582 -5.214559 -7.343830 4.499154 25.253428 1.979010 3.194675 59.891729 3.452792 12.467032 -12.651086 28.602851 -2.327454 4.675994 8.832763 -1.218026 
-0.416059 2.894410 0.994659 5.551323 0.540571 85.948500 3.429769 5.411808 12.056732 -2.832568 -0.984813 -4.592583 3.776515 13.895573 -11.660449 0.000000 -0.000000 0.000000 -2.258340 -2.905847 -0.624733 0.995827 -4.547059 19.411443 4.867315 -8.001650 -12.692092 0.000000 -0.000000 0.000000 -0.076635 -1.650914 0.051936 0.792779 -2.868149 10.922579 -0.836901 -2.234954 -0.924337 4.650601 5.662126 2.930206 1.536402 5.512446 0.312345 -27.720037 3.716903 1.069761 -60.389474 -3.101708 9.289662 13.615508 -35.016541 3.070474 -5.231914 -7.333784 4.499287 25.237124 1.978870 3.206170 59.911897 3.439875 12.466292 -12.652216 28.603271 -2.331905 4.682695 8.835439 -1.252392 
-0.416022 2.894548 0.994656 5.542552 0.545516 85.944711 3.434245 5.420228 12.056543 -2.839217 -0.979692 -4.594114 3.775955 13.899939 -11.667990 0.000000 -0.000000 0.000000 -2.264867 -2.905922 -0.616752 1.007264 -4.543932 19.393757 4.866174 -7.991343 -12.686276 0.000000 -0.000000 0.000000 -0.065401 -1.652222 0.039601 0.787363 -2.862271 10.927922 -0.850755 -2.236609 -0.932123 4.667528 5.596705 2.978945 1.543512 5.455905 0.374722 -27.751832 3.748329 1.112392 -60.397846 -3.050758 9.288186 13.612156 -34.932660 3.076095 -5.223701 -7.310259 4.500010 25.228702 1.953104 3.210119 59.926990 3.420172 12.466516 -12.653872 28.611283 -2.336438 4.649233 8.833886 -1.299695 
